<svg width="32" height="32" viewBox="0 0 16 16" fill="none" xmlns="http://www.w3.org/2000/svg" role="img" aria-label="MOZN">
  <rect width="16" height="16" rx="3.6" fill="#032460" />
  <g transform="translate(1.76 1.76) scale(0.78)">
    <path d="M9.34695 7.98228V11.6687H10.5359V7.98228L13.018 7.98155C15.05 8.09178 15.9146 9.01697 15.9901 10.8692C16.0212 11.632 15.9653 12.4139 15.9893 13.1785H9.29962C9.21161 13.3666 9.16945 13.5687 9.06701 13.7521C8.73419 14.3477 8.04192 14.7037 7.34669 14.811V7.98228H9.34695ZM13.9891 11.6687L13.9699 10.5716C13.9344 10.3486 13.9129 10.1105 13.7968 9.90763C13.5664 9.50529 13.0058 9.48949 12.5739 9.4917V11.6684H13.9891V11.6687Z" fill="#ffffff" />
    <path d="M3.13871 7.96464V9.10552H2.02523L2.02449 12.117C2.05555 12.7516 2.21568 13.3457 3.0163 13.3887C3.82654 13.4324 4.16528 12.9974 4.21409 12.2915V7.96464H6.23358V12.2566C6.12116 14.1074 4.81909 14.99 2.88317 14.8996C1.21204 14.8217 0.120008 13.8623 0.0242291 12.2926C-0.0275432 11.442 0.0186821 10.5455 0.0257084 9.69452C0.0305158 9.11802 0.0205311 8.54115 0.0249688 7.96464H3.13871Z" fill="#ffffff" />
    <path d="M14.6118 6.98139H13.3475C13.2968 4.8907 11.6586 2.89407 9.49783 2.3205C6.38262 1.49378 3.66641 4.19331 3.76108 6.98139H2.49673C2.45346 5.07221 3.42641 3.18177 5.06501 2.04162C6.951 0.729883 9.22936 0.661908 11.2581 1.75355C13.2328 2.81617 14.5608 4.8455 14.6115 6.98139H14.6118Z" fill="#ffffff" />
    <path d="M12.234 6.98139H10.9696C10.9537 6.76718 10.9382 6.55627 10.8883 6.3461C10.5636 4.97594 8.90356 3.81338 7.4151 4.47366C6.42847 4.91127 5.83568 5.97646 5.91223 6.98139H4.64787C4.60904 6.01431 4.95111 5.03694 5.6297 4.30464C7.83002 1.92955 11.5976 3.38863 12.1523 6.24065C12.2 6.48683 12.2137 6.73191 12.2336 6.98103L12.234 6.98139Z" fill="#ffffff" />
    <path d="M8.22904 5.3533C9.15909 5.23608 9.84434 6.30421 9.09142 6.94575C8.25456 7.65857 6.98946 6.60588 7.5952 5.76482C7.72426 5.58551 7.99422 5.38306 8.22867 5.35366L8.22904 5.3533Z" fill="#ff7e50" />
  </g>
</svg>
