<svg preserveAspectRatio="none" width="100%" height="100%" overflow="visible" style="display: block;" viewBox="0 0 81 105.554" fill="none" xmlns="http://www.w3.org/2000/svg">
<path id="LYBA" d="M80.5 103.173L58.5198 102.381L47.3317 104.559L39.1139 105.054L35.0545 103.767L29.0148 99.6089L24.7574 93.8663L22.2822 90.0049L15.9455 87.9257L12.7772 88.1238L12.9752 88.7178L13.5693 89.4109L13.7673 89.7079L13.9653 90.302L13.2723 90.599L12.4802 89.3119L11.0941 84.8564L9.90594 83.0742L7.33171 80.401L6.44059 79.0148L2.57918 68.1237L2.28217 65.3515L2.18318 62.3812L1.98515 61.2921L0.995049 58.7178L0.698032 57.5297L0.5 54.7574L0.598986 51.6881L1.39111 46.0446L2.18318 43.5693L2.08413 42.8762L1.88616 42.0842L1.78712 41.3911L1.98515 40.698L2.77722 39.7079L7.92574 28.7178L9.3119 26.6386L20.1039 15.6485L20.9951 14.1634L23.7673 10.896L24.9555 10.203L27.2327 9.21287L28.2228 8.32178L29.0148 7.5297L37.3317 0.896041L38.0248 0.5L38.2227 1.58911L37.4307 9.01485L34.8564 13.3713L29.7079 17.9257L25.5495 23.7673L22.9753 31.1931L22.8762 36.1436L25.1535 43.3713L28.7178 50.797L31.7871 56.1436L34.0644 63.3713L36.5396 66.7376L44.2624 68.1237L48.9159 66.0445L53.2723 65.8465L60.698 66.9356L67.5297 66.4406L70.599 65.5495L74.5594 69.4109L75.0544 74.9554L76.1436 81.7871L78.7178 87.0346L80.5 103.173Z" fill="var(--fill-0, #EDEDF0)" stroke="var(--stroke-0, white)" stroke-linecap="round" stroke-linejoin="round"/>
</svg>
