<svg preserveAspectRatio="none" width="100%" height="100%" overflow="visible" style="display: block;" viewBox="0 0 126.545 273.574" fill="none" xmlns="http://www.w3.org/2000/svg">
<path id="LYBU" d="M116.144 273.074H116.045L115.45 272.975L114.955 272.876L87.8267 272.183L60.698 271.589L33.6683 270.995L6.53958 270.302L6.44059 227.629V184.658L6.34155 141.391L6.24256 97.8267L5.05443 97.3317L3.8663 96.8366L2.67823 96.3416L1.4901 95.8465H1.39105H1.29207H1.19308V82.0841L0.5 77.1336V66.9356L2.18318 55.5495L7.03463 48.3218L9.01483 37.8267L9.70791 25.7475L12.5792 15.3515L15.4505 7.33168L17.2326 1.39109L17.3317 0.995057L17.7277 1.19307L18.6188 1.39109L19.3119 1.88614L19.7079 2.57921L20.302 4.06436L20.797 4.55941L20.698 3.4703L20.1039 0.500008L21.193 0.896041H23.6683L24.1633 1.19307L25.7475 2.48021L26.1435 2.67822L33.2722 3.37129L41.193 3.27228L50.995 5.54951L60.0049 9.21287L58.6188 10.599L58.4208 11.0941L58.9158 11.3911L60.401 11.9852L63.9653 14.8564L65.2524 15.1535L76.1435 15.0545L91.2921 16.1436L96.4405 14.5594L97.6287 13.6683L98.3217 13.3713L100.599 13.8663L101.094 13.7673L101.589 13.4703L101.985 13.3713L102.48 13.6683L102.678 13.7673L103.371 14.2624L104.163 14.4604L105.252 15.0545L107.134 15.3515L109.51 16.2426L116.144 17.7277L118.223 19.0149L119.114 21.1931L118.52 23.8663L118.421 25.3515L118.817 26.5396L120.797 28.7178L123.866 33.1733L124.163 34.3614L124.955 36.2426L126.045 38.2228L125.846 38.4208L125.747 38.6188L122.183 41.4901L120.599 43.8663L118.52 49.5099L109.213 57.1337L108.52 59.3119V61.6881L109.114 67.3317V72.7772L110.5 79.9059L110.896 81.2921L112.876 85.4505L113.569 88.8168L116.144 94.1633L116.837 96.8366L116.54 99.1138L115.648 101.391L114.955 104.064L114.361 107.728L112.579 112.282L112.48 113.569L111.886 115.847L110.797 118.124L107.431 123.173L105.747 124.955L104.163 126.936L103.668 127.827L102.678 130.104L100.302 134.361L99.4108 136.738V139.312L99.9059 140.698L101.49 143.668L106.441 155.946L106.639 157.431V158.718L105.649 162.183L106.045 164.955L108.916 169.906L109.807 172.579V174.163L109.312 178.916L109.411 181.49L110.005 183.767L114.658 195.252L115.747 198.817L116.144 202.579V210.599V221.589V247.53V273.074Z" fill="var(--fill-0, #EDEDF0)" stroke="var(--stroke-0, white)" stroke-linecap="round" stroke-linejoin="round"/>
</svg>
