<svg preserveAspectRatio="none" width="100%" height="100%" overflow="visible" style="display: block;" viewBox="0 0 77.1387 146.049" fill="none" xmlns="http://www.w3.org/2000/svg">
<path id="LYDR" d="M76.6386 50.104L76.5396 50.5L74.7574 56.4406L71.8862 64.4604L69.0149 74.8564L68.3218 86.9356L66.3416 97.4307L61.4901 104.658L59.807 116.045V126.243L60.5 131.193V144.955L55.9455 145.45L50.302 145.549L44.5594 143.866L40.599 142.975L34.4604 138.718L31.2921 132.084L24.3614 125.847L20.005 121.985L11.5891 123.668L0.500012 112.876L2.28218 105.748L3.37132 100.797V90.0049L4.65844 86.3416L5.25247 78.9158L5.15349 72.0841L5.45051 61.1931L4.0644 54.9554L3.96536 49.1139L2.87627 43.1733L3.86637 40.995L4.65844 36.0445L6.34162 31.0941L7.13369 27.3317L6.63864 22.3812L4.85647 18.6188L3.47031 13.5693L3.96536 7.92574L4.0644 3.66832H4.16339L4.46041 2.87624L10.698 2.18317L10.9951 1.98515L11.5891 0.99505L11.8861 0.797029L13.1733 0.599009L13.7674 0.5L14.4604 0.797029L14.8564 1.19307L14.9555 1.58911V1.98515L15.1535 2.67822L17.0347 4.55941L19.3119 5.05446H24.5594L26.8367 5.84653L32.4802 10.104L33.5693 10.797L34.5594 11.1931L35.5495 11.3911L38.2228 11.5891L51.5891 15.7475L54.6584 17.7277L55.7475 18.0247L56.3416 18.2228L58.2228 18.9158L59.0149 19.1139L60.9951 18.9158L62.2822 19.4109L64.6584 20.599L67.2327 20.995L68.3218 21.4901L69.1138 22.1832L69.2129 23.1733L68.9159 23.8663L67.9258 25.0544L67.7277 25.6485L68.2228 29.8069L68.7178 30.896L69.6089 31.6881L70.797 32.3812L70.302 33.7673L69.6089 38.0247L68.5198 37.5297L68.7178 36.9356L68.5198 36.3416L68.2228 35.7475L67.7277 35.2525L66.8366 40.797L66.9357 42.1832L67.7277 42.8762L71.1931 44.2624L72.4802 44.4604L73.4703 45.0544L74.5594 46.3416L75.4505 47.8267L76.2426 49.8069L76.6386 50.104Z" fill="var(--fill-0, #EDEDF0)" stroke="var(--stroke-0, white)" stroke-linecap="round" stroke-linejoin="round"/>
</svg>
