<svg preserveAspectRatio="none" width="100%" height="100%" overflow="visible" style="display: block;" viewBox="0 0 120.01 222.683" fill="none" xmlns="http://www.w3.org/2000/svg">
<path id="LYGT" d="M114.856 145.054L111.094 155.252L111.49 167.728L111.292 180.797L111.094 192.678L118.124 205.45L119.51 213.569L118.718 222.183L100.599 216.144L93.8663 213.866L93.7673 213.767L92.4802 213.074L91.094 212.975L87.0346 211.688L84.8564 210.896L82.4802 210.005L75.8465 207.035L75.3515 207.233L73.8663 207.926H73.6683L67.3317 210.302L60.896 212.678H59.1138L50.0049 205.153L49.4109 204.658L49.3119 203.767L49.0148 202.975L48.9158 202.084L47.4307 195.549L46.7376 195.153L38.1238 190.104L37.8267 188.025L37.3317 184.163L37.1337 182.381L36.8366 170.896L36.7376 170.104L36.4406 158.718L18.9158 131.886L18.4208 131.094L17.1337 129.213L0.797034 104.163L0.500005 103.767L2.87624 101.391L3.4703 100.797L3.56931 100.599L3.96535 99.7079L4.55941 97.9257L4.95545 97.5297L5.35149 96.9356L5.54951 96.7376L6.4406 95.0544L7.33169 93.2722L25.6485 84.5594L26.0446 83.9653L27.3317 83.3713L30.302 75.3515L29.4109 69.2129L30.797 61.9851L30.896 61.5891L30.698 61.4901L30.302 61.193L30.104 61.094L29.9059 60.995L29.2129 60.1039L29.1139 59.9059L28.7178 59.2128V59.1138L28.4208 59.0148L28.1238 58.7178L28.0247 58.4208L27.9257 57.5297V57.3317L27.2327 55.7475L26.9356 54.3614L26.1436 51.2921L26.0446 50.599L26.2426 48.7178L26.0446 47.7277V47.3317L25.8465 46.7376L25.7475 46.0445L25.3515 45.2524L25.4505 44.5594L25.2525 43.7673V43.0742L24.3614 40.698L24.0644 38.6188L23.1733 36.9356L22.9752 35.8465L22.4802 35.1535L22.9752 31.9851L23.0743 30.599V30.401H22.4802L22.5792 30.0049L23.0743 29.1139L22.9752 28.6188L23.4703 27.3317L23.6683 26.9356L24.0644 26.4406V24.9554L24.2624 24.4604L24.5594 24.2624L24.4604 23.8663L24.3614 23.4703L24.5594 23.0742L24.9554 22.6782L25.0545 22.0841L25.3515 21.7871L25.8465 21.3911L25.9455 21.2921L26.5396 21.094L26.8366 20.797L27.0347 20.302L27.1337 18.9158L27.5297 17.7277L28.0247 16.8366H27.5297L26.5396 16.7376H25.6485L25.3515 16.6386L25.2525 16.3416L25.3515 16.0445L25.4505 15.8465L27.2327 15.2525L27.4307 14.7574L28.0247 14.2624L28.3218 13.9654L28.7178 13.4703L29.9059 10.797L30.203 10.005L30.5 9.01486L30.698 8.02476L31.1931 6.93564L31.6881 5.45049L31.5891 3.37128L31.7871 2.08416V0.5L39.5099 5.05446L50.5 9.90594L61.5891 13.0742L72.4802 16.2426L85.8465 18.7178L93.2723 21.3911L98.2227 24.8564L101.391 31.8861L103.173 46.8366L104.658 55.8465L106.936 68.9158L110.5 85.5495L112.579 93.8663L113.47 102.777L112.282 110.896L110.104 120.302L109.411 132.48L111.193 139.609L114.856 145.054Z" fill="var(--fill-0, #EDEDF0)" stroke="var(--stroke-0, white)" stroke-linecap="round" stroke-linejoin="round"/>
</svg>
