<svg preserveAspectRatio="none" width="100%" height="100%" overflow="visible" style="display: block;" viewBox="0 0 45.5545 127.832" fill="none" xmlns="http://www.w3.org/2000/svg">
<path id="LYJA" d="M45.0544 123.767L37.0347 124.559L26.8366 125.549L22.4802 127.332L22.1832 112.975L20.401 111.391L18.9158 108.223L16.7376 100.104L16.9356 92.3812L19.2129 86.5396L19.7079 80.104L19.4109 71.094L17.6287 64.8564L11.5891 60.0049L7.92574 55.9455L5.94554 49.3119L2.38121 42.7772L0.698032 35.8465L0.5 30.203L3.76731 26.2426L7.92574 21.9852L7.72771 17.6287L4.06433 12.8762L3.66833 11.9852L3.56928 12.0842H3.07423L2.57918 12.3812H2.08413L1.98515 11.9852L5.25246 11.0941L7.52968 9.80694L16.3416 1.78714L17.1336 1.3911L19.9059 1.19308L22.4802 0.500006L24.0643 1.78714L26.5396 2.77724L29.3118 3.4703L31.6881 3.66832L37.9257 2.97525L37.6287 3.76733H37.5297L37.4307 8.02476L36.9356 13.6683L38.3218 18.7178L40.1039 22.4802L40.599 27.4307L39.8069 31.1931L38.1238 36.1436L37.3317 41.0941L36.3416 43.2723L37.4307 49.2129L37.5297 55.0544L38.9158 61.2921L38.6188 72.1832L38.7178 79.0148L38.1238 86.4406L36.8366 90.104V100.896L35.7475 105.847L33.9653 112.975L45.0544 123.767Z" fill="var(--fill-0, #EDEDF0)" stroke="var(--stroke-0, white)" stroke-linecap="round" stroke-linejoin="round"/>
</svg>
