<svg preserveAspectRatio="none" width="100%" height="100%" overflow="visible" style="display: block;" viewBox="0 0 194.663 258.525" fill="none" xmlns="http://www.w3.org/2000/svg">
<path id="LYJG" d="M21.1931 247.134L19.4109 235.351L18.0247 229.906L12.9752 222.777L8.42079 215.054L8.51979 196.738L6.24258 182.777L3.86633 167.629L2.18316 152.975L1.78713 139.51L1.98515 127.827L0.5 119.312L0.995049 115.549L3.96535 112.381L8.71782 104.856L16.3416 93.4703L21.7871 83.4703L20.797 83.0742L17.9257 77.7277L15.5495 72.3812L14.5594 66.4406L15.0544 58.0247L14.3614 51.2921L14.6584 43.3713L15.6485 36.6386L14.7574 31.6881L13.7673 24.4604L14.7574 15.9455L16.0445 9.21287V1.19307L32.0841 1.68812L40.599 1.88614L46.8366 1.3911L51.8861 3.4703L56.6386 4.85644L60.995 6.24257L63.1733 5.74752L65.9455 5.05446L70.698 4.36139L78.9158 3.17327L83.8663 3.07426L89.9059 2.18317L91.7871 0.896046L95.3515 0.500005L98.1237 3.66832L101.787 8.32179L103.371 14.5594L103.668 18.5198L106.837 24.5594L109.015 34.4604L112.579 41.6881L115.252 47.8267L117.134 54.9554L120.302 59.5099L126.54 67.3317L130.203 69.5099L133.371 71.4901L134.361 72.6782L141.886 86.7376L147.035 99.7079L150.203 107.431L158.52 111.886L163.866 114.163L170.104 118.718L182.678 122.183L187.134 124.361L187.431 124.559L192.381 128.124L193.47 138.025L194.163 146.441L194.064 153.965L191.292 159.015L187.53 162.975L186.837 164.262L185.054 167.728L181.688 172.381L180.104 175.946L180.302 180.896L181.292 185.549L181.49 190.797L181.094 194.163L178.718 197.431L174.163 200.302L167.035 205.549L162.084 207.035L162.183 203.47L159.213 199.708L154.46 194.559L148.52 190.203L141.094 186.54L137.629 184.559L132.975 183.569L128.124 184.955L121.688 190.302L118.619 193.074L115.054 197.431L110.5 203.272L107.827 208.916L104.955 213.668L101.49 218.421L98.2227 223.668L92.8762 230.995L86.9356 237.728L80.599 241.094L75.6485 244.163L72.3812 246.143L69.0148 249.213L67.1337 253.668L63.1733 257.827L57.5297 258.025L52.5792 255.549L51.9851 250.5L48.5198 249.807L43.9653 249.51L39.8069 249.015L32.8762 246.143L30.203 245.747L22.9752 243.668L21.1931 247.134Z" fill="var(--fill-0, #EDEDF0)" stroke="var(--stroke-0, white)" stroke-linecap="round" stroke-linejoin="round"/>
</svg>
