<svg preserveAspectRatio="none" width="100%" height="100%" overflow="visible" style="display: block;" viewBox="0 0 272.98 250.307" fill="none" xmlns="http://www.w3.org/2000/svg">
<path id="LYJU" d="M272.381 185.45L272.282 217.728V249.807L269.807 248.619L263.866 246.54L256.144 244.658L247.134 242.876L240.698 241.193L234.955 240.599L229.114 235.252L223.866 229.114L217.233 226.144L209.114 228.124L202.975 231.391L200.302 234.658L192.876 240.104L188.223 241.49L180.797 242.084L176.639 244.757L171.886 246.738L163.47 243.668L153.767 241.49L145.054 239.708L141.787 235.153L137.233 231.985L132.876 229.312L126.837 222.975L123.767 216.441L124.262 209.906L121.094 205.351L117.629 203.371L112.579 200.797L109.807 199.51L107.233 196.144L106.738 190.797L106.837 186.144L107.332 181.49L107.431 180.896L106.144 176.54L102.381 174.361L98.7178 170.995L94.9554 168.817L92.6782 166.639L90.896 161.688L89.3119 156.342L83.8663 148.025L79.7079 141.787V139.906L79.8069 138.52L81.6881 133.569L83.9653 127.431L85.3515 122.183L84.4604 116.837L79.5099 111.787L75.4505 110.599L67.9257 108.025L63.2723 107.728L56.0445 108.52L48.5198 112.777L41.2921 113.569L35.2525 112.579L33.9654 107.827L33.8663 102.777L31.9852 95.5495L25.1535 88.2228L14.8564 81.5891L10.698 78.2228L7.33171 75.2525L3.96535 70.104L1.2921 64.8564L0.5 57.7277L0.896064 49.7079L1.19308 43.2723L6.14357 41.7871L13.2723 36.5396L17.8267 33.6683L20.203 30.401L20.599 27.0347L20.401 21.7871L19.4109 17.1337L19.2129 12.1832L20.797 8.61882L24.1634 3.96535L25.9455 0.500001L28.6188 1.98515L32.8762 6.14358L37.2327 10.9951L45.8465 13.8663L51.3911 15.0545L56.2426 16.8366L62.9752 16.7376L66.7376 18.5198L68.5198 20.302L72.2822 26.3416L76.5396 31.1931L84.5594 32.2822L88.1237 29.2129L93.6683 26.1436L99.1138 24.2624L107.035 26.6386L112.579 28.4208L115.252 30.203L116.243 29.6089L122.975 31.3911L133.965 30.698L140.104 28.2228L147.431 28.8168L153.47 34.2624L162.084 36.6386L167.53 38.5198L173.074 33.5693L177.332 31.1931H181.589L186.441 35.4505L187.629 40.302L190.104 46.3416L194.955 51.8862L199.807 57.9257L202.183 65.2525L204.559 74.3614L210.599 80.401L218.421 85.9455L227.53 88.4208L234.064 90.5V89.4109L246.54 93.6683L262.876 98.6188V98.7178L272.48 99.4109L272.381 185.45Z" fill="var(--fill-0, #EDEDF0)" stroke="var(--stroke-0, white)" stroke-linecap="round" stroke-linejoin="round"/>
</svg>
