<svg preserveAspectRatio="none" width="100%" height="100%" overflow="visible" style="display: block;" viewBox="0 0 332.881 470.802" fill="none" xmlns="http://www.w3.org/2000/svg">
<path id="LYKF" d="M1.4901 325.847V325.451V320.995V320.302V319.708V319.015V318.421V317.728V317.134V316.441V315.847L1.39112 285.154L1.19308 254.362L1.0941 223.47L0.995052 192.48L0.79702 161.292L0.698034 130.104L0.599049 98.718L0.500002 67.1338V35.0546L0.599049 2.7774L20.005 2.67838L39.3119 2.57937L64.2624 2.38137L89.2129 2.18333L123.47 2.67838L157.728 3.07442L191.094 2.87642L224.46 2.67838L257.827 2.08432L291.292 1.49025L312.381 0.995204L332.282 0.500155H332.381V12.5794V25.0546V43.6685V62.2823V80.7972V99.312V117.728V136.144V154.461V172.777V190.995V209.213V227.431V245.55V263.668V281.688V299.708V317.728V325.352L332.282 333.074V340.698V348.322V356.045V363.668V371.292V378.916V386.54V394.064V401.688V409.312V415.055V420.896V426.639V432.48V439.213V439.312V439.609V439.708L332.183 439.807V439.906L332.084 440.005H331.985H331.787H331.688L331.589 440.104H325.846H317.53L310.5 440.005H303.371H295.747H289.312H284.46H276.342H275.252V447.629V455.154V462.777V469.51V470.302L268.223 466.639L261.193 462.975L254.064 459.213L247.035 455.55L240.005 451.787L232.975 448.124L225.847 444.46L218.817 440.698L211.787 437.035L204.757 433.272L197.728 429.609L190.599 425.847L183.569 422.183L181.688 421.193L176.54 418.421L169.51 414.758L162.381 410.995L155.351 407.332L148.322 403.569L141.292 399.906L134.262 396.144L127.134 392.381L120.104 388.718L113.074 384.955L106.045 381.292L103.965 380.104L98.9158 377.53L91.8861 373.767L84.8564 370.104L77.8267 366.342L70.797 362.579L63.6683 358.817L56.6386 355.154L49.6089 351.391L42.5792 347.629L35.4505 343.866L28.4208 340.104L21.3911 336.441L14.3614 332.678L7.33171 328.916L1.4901 325.847Z" fill="var(--fill-0, #EDEDF0)" stroke="var(--stroke-0, white)" stroke-linecap="round" stroke-linejoin="round"/>
</svg>
