<svg preserveAspectRatio="none" width="100%" height="100%" overflow="visible" style="display: block;" viewBox="0 0 87.9307 55.8515" fill="none" xmlns="http://www.w3.org/2000/svg">
<path id="LYMB" d="M87.3316 21.3911L87.2326 22.0842L86.5396 23.6683L85.3514 28.4208L85.8465 31.8861L87.4307 35.6485L87.2326 39.6089L85.0544 42.3812L83.0742 47.9257L82.1832 53.8663L78.4208 54.4604L70.995 55.3515L64.9554 53.2723L60.401 48.6188L51.094 42.0842L47.9257 45.8465L43.6683 46.7376L41.8861 46.5396L38.4208 44.8564L34.6584 44.9554L31.3911 46.2426L25.7475 47.9257L22.1832 48.5198L13.2723 48.2228L9.70791 48.3218L9.41089 44.3614L7.82673 38.1238L4.16335 33.4703L1.39109 30.302L0.500006 29.2129L7.03463 27.1337L9.01483 25.8465L9.90594 22.3812L12.7772 16.0446L17.0346 14.6584L19.8069 13.8663L27.2327 10.401L28.1238 10.302L33.2722 9.80693L33.4703 8.51981L37.8267 3.66832L41.4901 0.500008L43.6683 1.39109L54.1633 3.17327L54.7574 3.4703L55.7475 4.36139L56.0445 4.55941L57.0346 5.05446L59.1138 7.13367L62.2822 9.11386L67.2327 13.4703L69.8069 16.2426L70.896 16.6386L80.203 18.2228L81.094 18.7178L81.9851 19.5099L84.4604 20.896L85.6485 21.2921L87.3316 21.3911Z" fill="var(--fill-0, #EDEDF0)" stroke="var(--stroke-0, white)" stroke-linecap="round" stroke-linejoin="round"/>
</svg>
