<svg preserveAspectRatio="none" width="100%" height="100%" overflow="visible" style="display: block;" viewBox="0 0 179.911 205.455" fill="none" xmlns="http://www.w3.org/2000/svg">
<path id="LYMI" d="M156.936 80.401L156.639 80.995L155.648 83.3713L155.747 94.4604L158.223 104.361L161.985 118.421L164.559 131.391L166.441 143.569L170.797 155.847L175.747 169.312L177.53 179.609L179.411 188.223L178.223 194.955L172.975 202.876L170.302 201.094L164.757 199.312L156.837 196.936L151.391 198.817L145.846 201.886L142.282 204.955L134.262 203.866L130.005 199.015L126.243 192.975L124.46 191.193L120.698 189.411L113.965 189.51L109.114 187.728L103.569 186.54L94.9554 183.668L90.599 178.817L86.3416 174.658L83.6683 173.173L84.3614 171.886L88.1237 167.926L90.896 162.876L90.995 155.351L90.302 146.936L89.2129 137.035L84.2624 133.47L83.9653 133.272L79.5099 131.094L66.9356 127.629L60.698 123.074L55.3515 120.797L47.0346 116.342L43.8663 108.619L38.7178 95.6485L31.1931 81.5891L30.203 80.401L27.0346 78.4208L23.3713 76.2426L17.1336 68.4208L13.9653 63.8663L12.0842 56.7376L9.41089 50.599L5.84653 43.3713L3.66833 33.4703L0.5 27.4307L4.06436 27.3317L12.9753 27.6287L16.5396 27.0347L22.1832 25.3515L25.4505 24.0644L29.2129 23.9653L32.6782 25.6485L34.4604 25.8465L38.7178 24.9554L41.8861 21.1931L51.1931 27.7277L55.7475 32.3812L61.7871 34.4604L69.2129 33.5693L72.9752 32.9752L73.8663 27.0347L75.8465 21.4901L78.0247 18.7178L78.2228 14.7574L76.6386 10.9951L76.1435 7.52971L77.3317 2.77723L78.0247 1.19307L78.1237 0.500007L86.9356 0.896048L98.5198 2.97525L101.193 3.96535L102.381 4.16337L103.173 4.55941L105.351 7.4307L107.431 8.61881L108.223 9.4109L108.718 11.8861L109.213 13.2723L110.401 15.7475L112.777 19.0149L113.173 20.104L113.074 21.4901L112.579 23.9653L112.381 26.6386L112.282 28.2228L112.678 33.1733L113.173 35.5495L120.005 53.3713L121.391 55.7475L127.53 64.5594L131.292 68.5198L135.45 71.8861L151.688 79.4109L156.936 80.401Z" fill="var(--fill-0, #EDEDF0)" stroke="var(--stroke-0, white)" stroke-linecap="round" stroke-linejoin="round"/>
</svg>
