<svg preserveAspectRatio="none" width="100%" height="100%" overflow="visible" style="display: block;" viewBox="0 0 81.297 118.525" fill="none" xmlns="http://www.w3.org/2000/svg">
<path id="LYMJ" d="M80.797 115.847L77.3317 117.332L62.5792 118.025L58.1238 117.926L56.3416 101.787L53.7674 96.5396L52.6782 89.7079L52.1832 84.1634L48.2228 80.302L45.1535 81.1931L38.3218 81.6881L30.896 80.599L26.5396 80.797L21.8862 82.8762L14.1634 81.4901L11.6882 78.1238L9.41089 70.896L6.34161 65.5495L2.77728 58.1238L0.5 50.896L0.599046 45.9455L3.17328 38.5198L7.33171 32.6782L12.4802 28.1238L15.0545 23.7673L15.8465 16.3416L15.6486 15.2525L28.3218 9.80694L36.1436 4.4604L42.7772 1.09407L45.4505 0.500007L56.2426 1.19308L58.8168 0.896048L60.302 0.500007L60.401 0.896048H60.896L61.3911 0.599023H61.8861L61.9852 0.500007L62.3812 1.3911L66.0445 6.14358L66.2426 10.5L62.0842 14.7574L58.8168 18.7178L59.0149 24.3614L60.6981 31.2921L64.2624 37.8267L66.2426 44.4604L69.906 48.5198L75.9455 53.3713L77.7277 59.6089L78.0248 68.6188L77.5297 75.0545L75.2525 80.896L75.0545 88.6188L77.2327 96.7376L78.7178 99.9059L80.5 101.49L80.797 115.847Z" fill="var(--fill-0, #EDEDF0)" stroke="var(--stroke-0, white)" stroke-linecap="round" stroke-linejoin="round"/>
</svg>
