<svg preserveAspectRatio="none" width="100%" height="100%" overflow="visible" style="display: block;" viewBox="0 0 449.317 328.03" fill="none" xmlns="http://www.w3.org/2000/svg">
<path id="LYMQ" d="M447.827 68.8168L447.926 100.401L448.025 131.787L448.124 162.975L448.322 194.163L448.421 225.153L448.52 256.045L448.718 286.837L448.817 317.53V318.124V318.817V319.411V320.104V320.698V321.391V321.985V322.678V327.134V327.53L447.53 326.837L440.5 323.074L433.47 319.312L426.441 315.549L419.411 311.787L412.282 308.025L405.252 304.262L398.223 300.5L391.193 296.738L384.064 292.975L377.035 289.213L370.005 285.45L362.975 281.688L355.945 277.926L348.817 274.163L341.787 270.401L334.757 266.54L327.728 262.777L320.599 259.015L313.569 255.252L306.54 251.49L299.51 247.629L292.48 243.866L285.351 240.104L278.322 236.342L271.292 232.48L266.837 230.104L266.045 229.708L264.955 229.906L262.381 231.094L259.114 232.777L255.747 234.361L252.48 235.946L249.213 237.629L245.945 239.213L242.579 240.896L239.312 242.48L236.044 244.163L232.777 245.747L229.411 247.332L226.144 249.015L222.876 250.599L219.609 252.183L216.243 253.866L212.975 255.45L209.708 257.134L208.718 257.629H208.619L198.916 262.975L189.114 268.322L179.312 273.668L169.609 279.015L165.946 280.995L165.054 281.094L164.262 280.698L161.688 278.322L154.559 271.985L147.431 265.648L140.203 259.213L133.074 252.876L129.906 249.906L123.173 246.144L117.431 244.757L112.381 243.569L107.332 242.282L102.282 241.094L97.2326 239.906L92.1832 238.619L87.1336 237.431L82.0841 236.243L77.1336 234.955L72.0841 233.767L67.0346 232.579L61.9851 231.292L56.9356 230.104L51.8861 228.817L46.8366 227.629L41.7871 226.441L38.3218 225.549L36.8366 225.153L32.3812 216.342L28.4208 208.124L21.9851 195.054L21.8861 194.856L17.8267 186.441L14.2624 179.312L13.8663 178.421L12.3812 176.441L10.5 175.45L8.12376 174.658L8.91584 166.045L7.52971 157.926L0.5 145.153L0.698017 133.272L0.896033 120.203L0.5 107.728L4.26238 97.5297L15.3515 91.1931L25.6485 96.1436L30.5 97.7277L41.1931 96.8366L47.7277 95.9455L53.4703 90.995L59.3119 86.0445L67.1337 87.6287L74.2624 86.8366L78.9158 83.0742L84.2624 81.094L93.6683 77.9257L107.431 76.9356L113.272 72.5792L119.114 65.2525L123.173 61.5891L133.866 58.9158L149.015 53.3713V53.4703L160.302 52.0842L166.837 49.5099L176.936 45.1535L183.47 38.4208L189.312 31.7871L195.252 25.6485L200.005 20.797L208.322 17.6287L215.549 15.7475L225.747 13.1733L236.54 11.8861L247.332 9.90595L253.272 8.6188L282.876 0.500007L282.381 5.15345L282.282 9.80693L282.777 15.1535L285.351 18.5198L288.124 19.8069L293.173 22.3812L296.639 24.3614L299.807 28.9158L299.312 35.4505L302.381 41.9851L308.421 48.3218L312.777 50.995L317.332 54.1633L320.599 58.7178L329.312 60.5L339.015 62.6782L347.431 65.7475L352.183 63.7673L356.342 61.094L363.767 60.5L368.421 59.1138L375.846 53.6683L378.52 50.401L384.658 47.1337L392.777 45.1535L399.411 48.1238L404.658 54.2624L410.5 59.6089L416.242 60.203L422.678 61.8861L431.688 63.6683L439.411 65.5495L445.351 67.6287L447.827 68.8168Z" fill="var(--fill-0, #EDEDF0)" stroke="var(--stroke-0, white)" stroke-linecap="round" stroke-linejoin="round"/>
</svg>
