<svg preserveAspectRatio="none" width="100%" height="100%" overflow="visible" style="display: block;" viewBox="0 0 147.832 258.723" fill="none" xmlns="http://www.w3.org/2000/svg">
<path id="LYNL" d="M123.173 1.09407L126.243 3.86635L129.114 7.03466L132.381 8.12377L141.589 8.02476V16.0446L140.302 22.7772L139.312 31.2921L140.302 38.5198L141.193 43.4703L140.203 50.203L139.906 58.1238L140.599 64.8564L140.104 73.2723L141.094 79.2129L143.47 84.5594L146.342 89.9059L147.332 90.302L141.886 100.302L134.262 111.688L129.51 119.213L126.54 122.381L126.045 126.144L127.53 134.658L127.332 146.342L127.728 159.807L129.411 174.46L131.787 189.609L134.064 203.569L133.965 221.886L138.52 229.609L143.569 236.738L144.955 242.183L146.738 253.965L146.639 254.163L145.549 255.549L143.668 258.223L137.431 256.738L133.767 252.975L127.926 254.163L125.946 254.262L120.5 253.371L118.322 254.658L114.46 257.134L110.896 257.233L103.272 254.064L100.599 252.084L93.2723 250.896L89.7079 246.144L88.8168 241.391L87.2327 237.728L83.9653 238.817L79.8069 241.589L78.7178 242.381L75.5495 245.153L70.5 247.53L65.3515 249.708L60.401 251.985L56.6386 252.678L48.5198 248.025L43.1733 245.946L40.5 246.738L35.3515 248.322L30.896 249.906L28.9159 250.896L29.9059 242.975L28.3218 227.233L28.1238 225.847L22.8762 199.609L8.81685 168.223L2.08418 159.114L0.500022 150.995L0.797051 150.797L3.37131 149.411L8.22279 146.738L8.81685 146.441L9.21289 146.144L10.104 145.649L20.599 140.104L22.2822 139.609H23.3713L26.4406 139.312L27.4307 138.817L27.9258 138.52L35.0545 129.312L41.0941 119.51L46.2426 113.569L49.8069 106.243L50.698 103.569V101.292L49.3119 96.6386L49.0149 94.2624L49.3119 91.6881L49.2129 90.5L47.4307 86.6386L45.7475 79.6089L41.4901 68.2228L41.3911 67.0346L41.9852 62.6782L42.8762 61.0941L46.5396 57.0347L50.302 50.203L52.2822 48.6188L52.5792 48.4208L53.2723 47.8267H53.4703L59.7079 47.9257L62.8762 46.6386L63.7673 45.9455L64.1634 45.5495L64.5594 45.0545L65.2525 44.0644L66.2426 41.7871L68.6188 39.5099L69.4109 37.2327L69.9059 31.8861L71.1931 30.5L71.7871 30.599H72.2822L73.2723 31.1931L74.2624 31.5891L75.4505 31.2921L77.3317 29.7079L78.0247 29.3119L79.4109 28.4208L81.2921 26.5396L83.5693 21.1931L85.1535 19.5099L89.4109 17.4307L102.777 11.0941L108.124 8.51981L115.847 4.75744L117.134 4.16337L117.728 3.86635L121.688 1.19308L122.381 0.500011L122.876 0.797044L123.173 1.09407Z" fill="var(--fill-0, #EDEDF0)" stroke="var(--stroke-0, white)" stroke-linecap="round" stroke-linejoin="round"/>
</svg>
