<svg preserveAspectRatio="none" width="100%" height="100%" overflow="visible" style="display: block;" viewBox="0 0 63.1782 60.4059" fill="none" xmlns="http://www.w3.org/2000/svg">
<path id="LYNQ" d="M22.0842 59.8069L12.8762 59.9059L9.60891 58.8168L6.73763 55.6485L3.66831 52.8762L4.46039 52.6782L5.84654 50.599L7.62871 49.0148L7.43069 45.8465L5.54951 42.5792L4.06436 40.698L1.4901 38.6188L0.5 36.0446L1.09407 31.7871L0.896049 29.0149L0.698017 27.2327L1.19307 24.6584L1.4901 22.1832L0.599016 19.7079L1.78713 16.1436L1.98515 15.6485L2.67821 13.5693L2.97525 13.4703L2.77723 11.9851L2.67821 11.6881V8.02475L2.97525 7.03466L3.56931 5.74753L4.36139 4.06436L4.65841 2.67822L4.75743 2.38119V2.28218L4.85644 1.4901L5.64851 2.08416L6.44059 3.86634L7.33169 4.55941L9.11386 5.4505L16.0445 6.53961L18.1238 7.33168L17.0346 6.04456L13.2723 4.85644L12.2822 3.56931L15.0544 5.15347L21.1931 7.23268L34.5594 15.7475L36.9356 18.2228L39.1138 18.8168L42.7772 21.2921L47.3317 23.4703L49.8069 24.1634L62.6782 25.5495L61.5891 26.4406L58.6188 36.1436L56.3416 39.9059L49.2129 44.6584L46.3416 48.5198L41.8861 50.698L36.9356 53.0743L35.5495 56.6386L22.0842 59.8069ZM1.68812 0.896042V0.500005L2.87625 0.797033L4.55941 1.39109V1.4901H4.46039H4.36139H4.26238H4.16336V1.58911H4.06436H3.96535H3.86634V1.4901H3.76733H3.66831V1.39109H3.56931H3.4703H3.3713H3.27228H3.17326H3.07426V1.29208H2.97525H2.87625H2.77723H2.67821V1.19307H2.57921H2.4802H2.3812H2.28218V1.09406H2.18316H2.08416H1.98515V0.995054H1.88615H1.78713V0.896042H1.68812Z" fill="var(--fill-0, #EDEDF0)" stroke="var(--stroke-0, white)" stroke-linecap="round" stroke-linejoin="round"/>
</svg>
