<svg preserveAspectRatio="none" width="100%" height="100%" overflow="visible" style="display: block;" viewBox="0 0 135.059 96.8416" fill="none" xmlns="http://www.w3.org/2000/svg">
<path id="LYSB" d="M134.46 43.3713L104.856 51.4901L98.9158 52.7772L88.1237 54.7574L77.3317 56.0446L67.1337 58.6188L59.9059 60.5L51.5891 63.6683L46.8366 68.5198L40.896 74.6584L35.0544 81.2921L28.5198 88.0248L18.4208 92.3812L11.8861 94.9555L0.599016 96.3416V96.2426L0.5 89.8069L2.77725 82.5792L9.21289 76.4406L12.6782 69.2129L11.9852 65.6485L8.91584 62.0842L6.44059 57.3317L6.93564 48.9159L5.64853 42.3812L3.37128 39.906L22.3812 37.8267L28.4208 37.1337L31.9852 34.0644L34.2624 30.401L39.6089 26.6386L45.6485 22.9753L52.7772 18.6188L56.9356 11.2921L65.3515 7.52971L71.3911 6.83666L81.5891 5.54951L85.2525 3.66833L93.6683 0.5L106.837 1.78715V3.66833L110.995 9.90594L116.441 18.2228L118.025 23.5693L119.807 28.5198L122.084 30.698L125.847 32.8762L129.51 36.2426L133.272 38.4208L134.559 42.7772L134.46 43.3713Z" fill="var(--fill-0, #EDEDF0)" stroke="var(--stroke-0, white)" stroke-linecap="round" stroke-linejoin="round"/>
</svg>
