<svg preserveAspectRatio="none" width="100%" height="100%" overflow="visible" style="display: block;" viewBox="0 0 153.178 183.772" fill="none" xmlns="http://www.w3.org/2000/svg">
<path id="LYSR" d="M152.678 59.3119L151.589 71.2921L149.609 84.0644L148.916 95.1535L150.005 106.144L148.025 115.847L141.193 125.55L137.431 139.015L136.639 157.827V182.183V183.272L130.104 181.193L120.995 178.718L113.173 173.173L107.134 167.134L104.757 158.025L102.381 150.698L97.5297 144.658L92.6782 139.114L90.2029 133.074L89.0148 128.223L84.1633 123.965H79.9059L75.6485 126.342L70.1039 131.292L64.6584 129.411L56.0445 127.035L50.0049 121.589L42.6782 120.995L36.5396 123.47L25.5495 124.163L18.8168 122.381L17.8267 122.975L23.0742 115.054L24.2624 108.322L22.3812 99.7079L20.599 89.4109L15.6485 75.9456L11.2921 63.6683L9.41089 51.4901L6.83663 38.5198L3.07423 24.4604L0.598986 14.5594L0.5 3.47033L1.4901 1.09408L1.78712 0.500032L14.4604 2.77725L35.5495 2.97528L47.7277 5.64854L60.2029 10.005L69.9059 12.0842H71.8861L72.4802 12.3812L72.8762 12.5792L74.9554 13.7674L76.5396 15.2525L77.1336 15.6485L77.7277 15.8466L86.1435 18.4208L90.4999 20.599L95.3515 22.1832L99.5099 22.9753L100.203 23.6683L101.787 26.0446L102.876 26.9357L103.965 27.5297L109.114 28.6188L118.124 32.0842L120.005 33.2723L121.589 34.7574L126.639 40.698L140.599 51.0941L143.767 54.6584L145.45 56.2426L149.213 58.3218L151.589 58.7178L152.678 59.3119Z" fill="var(--fill-0, #EDEDF0)" stroke="var(--stroke-0, white)" stroke-linecap="round" stroke-linejoin="round"/>
</svg>
