<svg preserveAspectRatio="none" width="100%" height="100%" overflow="visible" style="display: block;" viewBox="0 0 51.099 40.703" fill="none" xmlns="http://www.w3.org/2000/svg">
<path id="LYTB" d="M50.599 11.4901L46.9356 14.6584L42.5792 19.5099L42.3812 20.797L37.2327 21.2921L36.3416 21.3911L28.9159 24.8564L26.1436 25.6485L21.8862 27.0346L19.0149 33.3713L18.1238 36.8366L16.1436 38.1238L9.60894 40.203L6.83664 36.4406L7.03467 31.6881L6.04457 24.4604L5.45051 18.8168L0.500015 13.9653L2.48021 9.80693L2.08418 4.26237V3.76733V3.37128L2.77723 3.07426L4.55943 1.58911L5.54953 0.995049L6.83664 0.698021L10.797 0.5L16.2426 1.4901L16.8366 1.88614L17.4307 2.38119L28.8168 8.42079L31.3911 9.01485L41.0941 8.61881L43.5693 9.01485L48.4208 10.5L50.599 11.4901Z" fill="var(--fill-0, #EDEDF0)" stroke="var(--stroke-0, white)" stroke-linecap="round" stroke-linejoin="round"/>
</svg>
