<svg preserveAspectRatio="none" width="100%" height="100%" overflow="visible" style="display: block;" viewBox="0 0 371.099 279.218" fill="none" xmlns="http://www.w3.org/2000/svg">
<path id="LYWA" d="M370.599 276.144H370.5L350.599 276.639L329.51 277.134L296.044 277.728L262.678 278.322L229.312 278.52L195.945 278.718L161.688 278.322L127.431 277.827L102.48 278.025L77.5297 278.223L58.2227 278.322L38.8168 278.421L38.9158 192.381L29.3119 191.688V191.589L12.9752 186.639L0.5 182.381V158.025L1.29207 139.213L5.05443 125.748L11.8861 116.045L13.8663 106.342L12.7772 95.3515L13.4703 84.2624L15.4505 71.4901L16.5396 59.5099L24.8564 64.9554L27.2327 66.0446L32.2821 66.7376L37.4307 66.8366L42.7772 66.2426L45.7475 65.3515L48.4207 64.5594L52.9752 62.2822L59.4109 58.1238L60.5 57.6287L63.0743 57.1337L64.2623 56.5396L71.8861 50.599L81.292 39.1139L83.7673 34.7574L85.1534 32.7772L87.2326 31.0941L88.2227 30.104L91.8861 22.3812L94.5594 15.0545L94.8564 12.1832L94.5594 3.66833L94.2624 3.17328L94.9554 2.87625L94.7574 2.28218L94.5594 1.98515L93.9653 1.29208L93.7673 0.698032L96.9356 0.5L103.272 2.57921L105.747 6.44059L110.005 12.1832L116.045 16.3416L120.104 17.6287L128.322 17.1337L139.51 14.9554L161.49 15.7475L165.945 15.8465L180.698 15.1535L184.163 13.6683L188.52 11.8861L198.718 10.896L206.738 10.104L215.153 8.42079L219.51 12.2822L226.441 18.5198L229.609 25.1535L235.747 29.4109L239.708 30.302L245.45 31.9851L251.094 31.8861L255.648 31.3911H255.747H255.846H255.945L257.134 31.8861L258.322 32.3812L259.51 32.8762L260.698 33.3713L260.797 76.9356L260.896 120.203V163.173L260.995 205.846L288.124 206.54L315.153 207.134L342.282 207.728L369.411 208.421L369.906 208.52L370.5 208.619H370.599V213.668V236.441V238.916V248.718V270.401V276.144Z" fill="var(--fill-0, #EDEDF0)" stroke="var(--stroke-0, white)" stroke-linecap="round" stroke-linejoin="round"/>
</svg>
