<svg preserveAspectRatio="none" width="100%" height="100%" overflow="visible" style="display: block;" viewBox="0 0 163.277 112.188" fill="none" xmlns="http://www.w3.org/2000/svg">
<path id="LYWD" d="M150.698 67.3317L135.549 72.8762L124.856 75.5495L120.797 79.2129L114.955 86.5396L109.114 90.896L95.3515 91.8861L85.9455 95.0544L80.599 97.0346L75.9455 100.797L68.8168 101.589L60.995 100.005L55.1534 104.955L49.4109 109.906L42.8762 110.797L32.1832 111.688L27.3317 110.104L17.0346 105.153L5.94554 111.49L2.28218 106.045L0.5 98.9158L1.19307 86.7376L3.37128 77.3316L4.5594 69.2129L12.1832 64.1633L25.6485 55.2525L40.896 44.5594L57.9257 32.6782L73.2723 20.797L84.4604 11.9852L98.0247 3.17328L108.223 0.5L117.332 2.08416L133.074 7.03466L153.47 10.9951L155.747 13.4703L157.035 20.005L156.54 28.4208L159.015 33.1733L162.084 36.7376L162.777 40.302L159.312 47.5297L152.876 53.6683L150.599 60.896L150.698 67.3317Z" fill="var(--fill-0, #EDEDF0)" stroke="var(--stroke-0, white)" stroke-linecap="round" stroke-linejoin="round"/>
</svg>
