<svg preserveAspectRatio="none" width="100%" height="100%" overflow="visible" style="display: block;" viewBox="0 0 346.841 217.436" fill="none" xmlns="http://www.w3.org/2000/svg">
<path id="LYWS" d="M3.4703 60.995L5.45049 60.0049L9.90594 58.4208L15.0545 56.8366L17.7277 56.0446L23.0743 58.1238L31.1931 62.7772L34.9554 62.0842L39.9059 59.8069L45.0544 57.6287L50.104 55.2525L53.2723 52.4802L54.3614 51.6881L58.5198 48.9159L61.7871 47.8267L63.3713 51.4901L64.2624 56.2426L67.8267 60.995L75.1535 62.1832L77.8267 64.1634L85.4505 67.3317L89.0148 67.2327L92.8762 64.7574L95.0544 63.4703L100.5 64.3614L102.48 64.2624L108.322 63.0743L111.985 66.8366L118.223 68.3218L120.104 65.6485L121.193 64.2624L121.292 64.0644L123.074 60.599L130.302 62.6782L132.975 63.0743L139.906 65.9455L144.064 66.4406L148.619 66.7376L152.084 67.4307L152.678 72.4802L157.629 74.9554L163.272 74.7574L167.233 70.599L169.114 66.1436L172.48 63.0743L175.747 61.0941L180.698 58.0247L187.035 54.6584L192.975 47.9258L198.322 40.599L201.589 35.3515L205.054 30.599L207.926 25.8465L210.599 20.203L215.153 14.3614L218.718 10.005L221.787 7.23269L228.223 1.88616L233.074 0.5L237.728 1.4901L241.193 3.4703L248.619 7.13367L254.559 11.4901L259.312 16.6386L262.282 20.401L262.183 23.9654L261.886 30.401L261.49 38.4208L262.282 45.5495L264.955 50.797L268.322 55.9455L271.688 58.9158L275.846 62.2822L286.143 68.9158L292.975 76.2426L294.856 83.4703L294.955 88.5198L296.243 93.2723L302.282 94.2624L309.51 93.4703L317.035 89.2129L324.262 88.4208L328.916 88.7178L336.441 91.2921L340.5 92.4802L345.45 97.5297L346.341 102.876L344.955 108.124L342.678 114.262L340.797 119.213L340.698 120.599L327.53 119.312L319.114 122.48L315.45 124.361L305.252 125.649L299.213 126.342L290.797 130.104L286.639 137.431L279.51 141.787L273.47 145.45L268.124 149.213L265.846 152.876L262.282 155.946L256.243 156.639L237.233 158.718L216.837 154.757L201.094 149.807L191.985 148.223L181.787 150.896L168.223 159.708L157.035 168.52L141.688 180.401L124.658 192.282L109.411 202.975L95.9455 211.886L88.3218 216.936L87.4307 208.025L85.3515 199.708L81.7871 183.074L79.5099 170.005L78.0247 160.995L76.2426 146.045L73.0742 139.015L68.1237 135.55L60.698 132.876L47.3317 130.401L36.4406 127.233L25.3515 124.064L14.3614 119.213L6.63862 114.658V114.361L6.73763 112.678L6.93564 112.282H7.03466L7.72772 111.787V111.292V110.302L7.62872 110.104L7.43069 109.411L0.5 84.0644L2.77723 66.5396L3.4703 60.995Z" fill="var(--fill-0, #EDEDF0)" stroke="var(--stroke-0, white)" stroke-linecap="round" stroke-linejoin="round"/>
</svg>
