<svg preserveAspectRatio="none" width="100%" height="100%" overflow="visible" style="display: block;" viewBox="0 0 72.2871 44.6634" fill="none" xmlns="http://www.w3.org/2000/svg">
<path id="LYZA" d="M0.500026 39.1139L13.9654 35.9455L15.3515 32.3812L20.302 30.005L24.7574 27.8267L27.6287 23.9653L34.7574 19.2129L37.0347 15.4505L40.005 5.74753L41.0941 4.85644L50.005 5.84654L55.4505 5.4505L69.7079 1.19308L71.3911 0.500002V0.896043V1.39109L71.7871 6.93564L69.8069 11.0941L69.6089 11.4901L63.6683 14.6584L61.1931 19.1139L59.6089 21.9852L55.3515 32.3812L55.7475 37.1337L55.1535 42.2822L50.401 42.9752L47.6287 43.6683L45.4505 44.1634L41.0941 42.7772L36.3416 41.3911L31.2921 39.3119L25.0545 39.8069L16.5396 39.6089L0.500026 39.1139Z" fill="var(--fill-0, #EDEDF0)" stroke="var(--stroke-0, white)" stroke-linecap="round" stroke-linejoin="round"/>
</svg>
