<svg width="32" height="32" viewBox="0 0 32 32" fill="none" xmlns="http://www.w3.org/2000/svg">
<path d="M8.00004 21.768C6.59502 21.1008 5.379 20.0931 4.46252 18.8364C3.54604 17.5797 2.95815 16.1139 2.75228 14.5722C2.54642 13.0305 2.72911 11.4618 3.28374 10.0087C3.83838 8.55554 4.74738 7.26406 5.92813 6.25161C7.10887 5.23916 8.52392 4.53785 10.0447 4.21141C11.5654 3.88498 13.1436 3.94377 14.6358 4.38244C16.1281 4.82111 17.487 5.62576 18.5892 6.72325C19.6913 7.82074 20.5017 9.17627 20.9467 10.6666H23.3334C24.8687 10.664 26.3466 11.2499 27.463 12.304C28.5793 13.358 29.2491 14.7999 29.3345 16.3328C29.42 17.8658 28.9145 19.3731 27.9222 20.5446C26.9298 21.7162 25.5262 22.4627 24 22.6306" stroke="#54545C" stroke-width="2" stroke-linecap="round" stroke-linejoin="round"/>
<path d="M17.3334 16L13.3334 22.6667H18.6667L14.6667 29.3333" stroke="#54545C" stroke-width="2" stroke-linecap="round" stroke-linejoin="round"/>
</svg>
