<svg width="32" height="32" viewBox="0 0 32 32" fill="none" xmlns="http://www.w3.org/2000/svg">
<path d="M17.3333 2.66663C20.5159 2.66663 23.5682 3.93091 25.8186 6.18134C28.0691 8.43178 29.3333 11.484 29.3333 14.6666" stroke="#54545C" stroke-width="2" stroke-linecap="round" stroke-linejoin="round"/>
<path d="M17.3333 8C19.1015 8 20.7971 8.70238 22.0474 9.95262C23.2976 11.2029 24 12.8986 24 14.6667" stroke="#54545C" stroke-width="2" stroke-linecap="round" stroke-linejoin="round"/>
<path d="M18.4427 22.0906C18.718 22.2171 19.0283 22.246 19.3222 22.1725C19.6162 22.0991 19.8764 21.9277 20.06 21.6866L20.5333 21.0666C20.7817 20.7354 21.1038 20.4666 21.4741 20.2815C21.8444 20.0963 22.2527 20 22.6667 20H26.6667C27.3739 20 28.0522 20.2809 28.5523 20.781C29.0524 21.2811 29.3333 21.9594 29.3333 22.6666V26.6666C29.3333 27.3739 29.0524 28.0521 28.5523 28.5522C28.0522 29.0523 27.3739 29.3333 26.6667 29.3333C20.3015 29.3333 14.197 26.8047 9.69609 22.3039C5.19522 17.803 2.66666 11.6985 2.66666 5.33329C2.66666 4.62605 2.94761 3.94777 3.4477 3.44767C3.9478 2.94758 4.62608 2.66663 5.33332 2.66663H9.33332C10.0406 2.66663 10.7188 2.94758 11.2189 3.44767C11.719 3.94777 12 4.62605 12 5.33329V9.33329C12 9.74728 11.9036 10.1556 11.7185 10.5259C11.5333 10.8961 11.2645 11.2182 10.9333 11.4666L10.3093 11.9346C10.0645 12.1215 9.89202 12.3874 9.82104 12.6871C9.75007 12.9868 9.78503 13.3018 9.91999 13.5786C11.7422 17.2798 14.7392 20.273 18.4427 22.0906Z" stroke="#54545C" stroke-width="2" stroke-linecap="round" stroke-linejoin="round"/>
</svg>
