<svg width="32" height="32" viewBox="0 0 32 32" fill="none" xmlns="http://www.w3.org/2000/svg">
<path d="M18.6667 5.33335V19.3867C19.6834 19.9737 20.4781 20.8798 20.9274 21.9645C21.3767 23.0492 21.4555 24.2518 21.1516 25.3859C20.8478 26.5199 20.1782 27.522 19.2468 28.2367C18.3153 28.9514 17.1741 29.3388 16 29.3388C14.826 29.3388 13.6847 28.9514 12.7533 28.2367C11.8219 27.522 11.1523 26.5199 10.8484 25.3859C10.5446 24.2518 10.6234 23.0492 11.0727 21.9645C11.522 20.8798 12.3166 19.9737 13.3334 19.3867V5.33335C13.3334 4.62611 13.6143 3.94783 14.1144 3.44774C14.6145 2.94764 15.2928 2.66669 16 2.66669C16.7073 2.66669 17.3855 2.94764 17.8856 3.44774C18.3857 3.94783 18.6667 4.62611 18.6667 5.33335Z" stroke="#54545C" stroke-width="2" stroke-linecap="round" stroke-linejoin="round"/>
</svg>
