<svg width="32" height="32" viewBox="0 0 32 32" fill="none" xmlns="http://www.w3.org/2000/svg">
<path d="M13.3333 26.6666L11.6667 23.3333L8 24" stroke="#54545C" stroke-width="2" stroke-linecap="round" stroke-linejoin="round"/>
<path d="M13.3333 5.33331L11.6667 8.66665L8 7.99998" stroke="#54545C" stroke-width="2" stroke-linecap="round" stroke-linejoin="round"/>
<path d="M14.1134 20H13.3334" stroke="#54545C" stroke-width="2" stroke-linecap="round" stroke-linejoin="round"/>
<path d="M2.66663 16H11.3333L13.3333 12" stroke="#54545C" stroke-width="2" stroke-linecap="round" stroke-linejoin="round"/>
<path d="M26.6666 19.3867C27.6834 19.9737 28.478 20.8798 28.9273 21.9645C29.3766 23.0492 29.4554 24.2518 29.1516 25.3859C28.8477 26.5199 28.1781 27.522 27.2467 28.2367C26.3153 28.9514 25.174 29.3388 24 29.3388C22.8259 29.3388 21.6847 28.9514 20.7532 28.2367C19.8218 27.522 19.1522 26.5199 18.8484 25.3859C18.5445 24.2518 18.6233 23.0492 19.0726 21.9645C19.5219 20.8798 20.3165 19.9737 21.3333 19.3867V5.33335C21.3333 4.62611 21.6142 3.94783 22.1143 3.44774C22.6144 2.94764 23.2927 2.66669 24 2.66669C24.7072 2.66669 25.3855 2.94764 25.8856 3.44774C26.3857 3.94783 26.6666 4.62611 26.6666 5.33335V19.3867Z" stroke="#54545C" stroke-width="2" stroke-linecap="round" stroke-linejoin="round"/>
<path d="M5.33337 13.3333L7.33337 16L5.33337 18.6666" stroke="#54545C" stroke-width="2" stroke-linecap="round" stroke-linejoin="round"/>
<path d="M9.33337 28L13.3334 20L11.3334 16" stroke="#54545C" stroke-width="2" stroke-linecap="round" stroke-linejoin="round"/>
<path d="M9.33337 4L13.3334 12H16" stroke="#54545C" stroke-width="2" stroke-linecap="round" stroke-linejoin="round"/>
</svg>
