<svg width="32" height="32" viewBox="0 0 32 32" fill="none" xmlns="http://www.w3.org/2000/svg">
<path d="M16 2.66669V5.33335" stroke="#54545C" stroke-width="2" stroke-linecap="round" stroke-linejoin="round"/>
<path d="M16 10.6667C14.7798 10.6661 13.5964 11.0838 12.647 11.8503C11.6977 12.6167 11.0398 13.6855 10.7832 14.8784C10.5266 16.0712 10.6868 17.316 11.237 18.405C11.7872 19.4941 12.6942 20.3615 13.8066 20.8627" stroke="#54545C" stroke-width="2" stroke-linecap="round" stroke-linejoin="round"/>
<path d="M2.66663 16H5.33329" stroke="#54545C" stroke-width="2" stroke-linecap="round" stroke-linejoin="round"/>
<path d="M26.6666 19.3867C27.6834 19.9737 28.478 20.8798 28.9273 21.9645C29.3766 23.0492 29.4554 24.2518 29.1516 25.3859C28.8477 26.5199 28.1781 27.522 27.2467 28.2367C26.3153 28.9514 25.174 29.3388 24 29.3388C22.8259 29.3388 21.6847 28.9514 20.7532 28.2367C19.8218 27.522 19.1522 26.5199 18.8484 25.3859C18.5445 24.2518 18.6233 23.0492 19.0726 21.9645C19.5219 20.8798 20.3165 19.9737 21.3333 19.3867V5.33335C21.3333 4.62611 21.6142 3.94783 22.1143 3.44774C22.6144 2.94764 23.2927 2.66669 24 2.66669C24.7072 2.66669 25.3855 2.94764 25.8856 3.44774C26.3857 3.94783 26.6666 4.62611 26.6666 5.33335V19.3867Z" stroke="#54545C" stroke-width="2" stroke-linecap="round" stroke-linejoin="round"/>
<path d="M6.57336 6.5733L8.45336 8.4533" stroke="#54545C" stroke-width="2" stroke-linecap="round" stroke-linejoin="round"/>
<path d="M8.45336 23.5467L6.57336 25.4267" stroke="#54545C" stroke-width="2" stroke-linecap="round" stroke-linejoin="round"/>
</svg>
