<svg width="32" height="32" viewBox="0 0 32 32" fill="none" xmlns="http://www.w3.org/2000/svg">
<path d="M17.0666 26.1333C17.4047 26.3868 17.7981 26.5564 18.2145 26.628C18.6309 26.6997 19.0584 26.6713 19.4617 26.5453C19.8651 26.4194 20.2327 26.1993 20.5343 25.9034C20.8359 25.6075 21.0628 25.2441 21.1964 24.8433C21.3301 24.4424 21.3665 24.0155 21.3028 23.5978C21.2391 23.1801 21.077 22.7835 20.8299 22.4408C20.5829 22.098 20.2579 21.8188 19.8818 21.6263C19.5057 21.4337 19.0892 21.3333 18.6666 21.3333H2.66663" stroke="#54545C" stroke-width="2" stroke-linecap="round" stroke-linejoin="round"/>
<path d="M23.3333 10.6666C23.6742 10.2121 24.1257 9.85223 24.6448 9.62123C25.1639 9.39023 25.7334 9.29576 26.2993 9.34678C26.8652 9.39781 27.4087 9.59264 27.8781 9.91278C28.3475 10.2329 28.7273 10.6677 28.9814 11.1759C29.2355 11.6841 29.3555 12.2489 29.3299 12.8165C29.3044 13.3841 29.1342 13.9358 28.8355 14.4191C28.5367 14.9024 28.1194 15.3014 27.6232 15.5781C27.1269 15.8547 26.5681 16 26 16H2.66663" stroke="#54545C" stroke-width="2" stroke-linecap="round" stroke-linejoin="round"/>
<path d="M13.0666 5.86665C13.4047 5.61312 13.7981 5.44356 14.2145 5.37192C14.6309 5.30028 15.0584 5.32862 15.4617 5.45461C15.8651 5.5806 16.2327 5.80062 16.5343 6.09655C16.8359 6.39249 17.0628 6.75585 17.1964 7.15671C17.3301 7.55756 17.3665 7.98443 17.3028 8.40214C17.2391 8.81984 17.077 9.21643 16.8299 9.55921C16.5829 9.90199 16.2579 10.1812 15.8818 10.3737C15.5057 10.5662 15.0892 10.6666 14.6666 10.6666H2.66663" stroke="#54545C" stroke-width="2" stroke-linecap="round" stroke-linejoin="round"/>
</svg>
