<svg preserveAspectRatio="none" width="100%" height="100%" overflow="visible" style="display: block;" viewBox="0 0 180 181" fill="none" xmlns="http://www.w3.org/2000/svg">
<g id="Mozn Logo" clip-path="url(#clip0_0_4)">
<path id="Vector" d="M105.156 79.0838V120.787H118.531V79.0838L146.455 79.0755C169.316 80.3225 179.043 90.7889 179.892 111.742C180.241 120.372 179.613 129.217 179.884 137.867H104.623C103.633 139.995 103.159 142.281 102.007 144.355C98.2624 151.093 90.4743 155.121 82.6529 156.335V79.0838H105.156ZM157.38 120.787L157.164 108.376C156.765 105.852 156.523 103.159 155.217 100.865C152.625 96.313 146.318 96.1343 141.459 96.1592V120.783H157.38V120.787Z" fill="var(--fill-0, #FFFFFF)"/>
<path id="Vector_2" d="M35.3127 78.8843V91.7906H22.786L22.7777 125.858C23.1272 133.037 24.9286 139.758 33.9357 140.244C43.0509 140.739 46.8617 135.818 47.4109 127.833V78.8843H70.1304V127.438C68.8656 148.375 54.2172 158.359 32.4379 157.336C13.6375 156.455 1.3521 145.602 0.274581 127.845C-0.307863 118.223 0.212176 108.08 0.291222 98.4537C0.345306 91.932 0.232977 85.4061 0.282901 78.8843H35.3127Z" fill="var(--fill-0, #FFFFFF)"/>
<path id="Vector_3" d="M164.386 67.7612H150.162C149.592 44.11 131.162 21.523 106.853 15.0345C71.807 5.6821 41.2495 36.2208 42.3145 67.7612H28.0904C27.6037 46.1634 38.5494 24.7776 56.9838 11.8796C78.2014 -2.95951 103.833 -3.72849 126.656 8.62083C148.873 20.6418 163.812 43.5988 164.382 67.7612H164.386Z" fill="var(--fill-0, #FFFFFF)"/>
<path id="Vector_4" d="M137.636 67.7612H123.411C123.233 65.3379 123.058 62.952 122.496 60.5744C118.843 45.0744 100.168 31.9228 83.4225 39.3923C72.3228 44.3428 65.6539 56.3929 66.515 67.7612H52.2909C51.8541 56.821 55.7024 45.7644 63.3366 37.4802C88.0904 10.6118 130.476 27.1178 136.716 59.3815C137.253 62.1664 137.407 64.9389 137.631 67.7571L137.636 67.7612Z" fill="var(--fill-0, #FFFFFF)"/>
<path id="Vector_5" d="M92.5794 49.3432C103.043 48.0173 110.752 60.1006 102.281 67.358C92.8665 75.4219 78.634 63.5131 85.4486 53.9986C86.9006 51.9702 89.9376 49.6799 92.5752 49.3474L92.5794 49.3432Z" fill="var(--fill-0, #FF7E50)"/>
<path id="Vector_6" d="M10.2884 170.234V177.97H8.27486V173.331L6.42768 177.97H4.801L2.94134 173.319V177.97H0.923589V170.234H3.30329L5.62474 175.588L7.92123 170.234H10.2884Z" fill="var(--fill-0, #FFFFFF)"/>
<path id="Vector_7" d="M13.4628 177.671C12.9469 177.413 12.5433 177.047 12.248 176.569C11.9526 176.091 11.807 175.534 11.807 174.894C11.807 174.254 11.9567 173.705 12.2563 173.223C12.5558 172.741 12.9635 172.375 13.4794 172.117C13.9994 171.86 14.5777 171.731 15.2226 171.731C15.8674 171.731 16.4457 171.86 16.9657 172.117C17.4858 172.375 17.8935 172.745 18.1889 173.223C18.4884 173.705 18.6382 174.262 18.6382 174.894C18.6382 175.526 18.4884 176.083 18.1847 176.565C17.881 177.047 17.4691 177.417 16.9491 177.671C16.4249 177.928 15.8425 178.057 15.2018 178.057C14.5611 178.057 13.9786 177.928 13.4628 177.671ZM16.1836 176.029C16.454 175.763 16.5913 175.384 16.5913 174.894C16.5913 174.403 16.4582 174.025 16.1961 173.759C15.934 173.493 15.6095 173.364 15.2226 173.364C14.8357 173.364 14.5028 173.493 14.2449 173.755C13.987 174.017 13.858 174.395 13.858 174.894C13.858 175.393 13.987 175.763 14.2407 176.029C14.4945 176.295 14.8149 176.424 15.2018 176.424C15.5887 176.424 15.9132 176.291 16.1836 176.029Z" fill="var(--fill-0, #FFFFFF)"/>
<path id="Vector_8" d="M22.0663 176.415H24.9161V177.97H19.8156V176.469L22.5489 173.373H19.8405V171.818H24.8579V173.319L22.0663 176.415Z" fill="var(--fill-0, #FFFFFF)"/>
<path id="Vector_9" d="M32.3423 172.454C32.7999 172.92 33.0329 173.56 33.0329 174.379V177.97H31.0318V174.632C31.0318 174.221 30.9194 173.9 30.6906 173.672C30.4618 173.443 30.1581 173.331 29.7712 173.331C29.3843 173.331 29.0806 173.443 28.8518 173.672C28.6229 173.9 28.5106 174.221 28.5106 174.632V177.97H26.497V171.822H28.5106V172.637C28.7145 172.367 28.989 172.151 29.3344 171.993C29.6797 171.835 30.0666 171.756 30.4992 171.756C31.2689 171.756 31.8846 171.988 32.3423 172.454Z" fill="var(--fill-0, #FFFFFF)"/>
<path id="Vector_10" d="M39.8849 171.743V173.306H42.5808V174.761H39.8849V176.457H42.9344V177.966H37.8713V170.23H42.9344V171.739H39.8849V171.743Z" fill="var(--fill-0, #FFFFFF)"/>
<path id="Vector_11" d="M44.6984 173.219C44.9522 172.741 45.3016 172.375 45.7426 172.117C46.1836 171.86 46.6745 171.731 47.2154 171.731C47.6772 171.731 48.0849 171.818 48.4343 171.997C48.7838 172.171 49.0542 172.404 49.2414 172.691V171.822H51.255V177.97H49.2414V177.101C49.0459 177.388 48.7713 177.621 48.4219 177.795C48.0724 177.97 47.6647 178.061 47.2029 178.061C46.6704 178.061 46.1836 177.932 45.7426 177.671C45.3016 177.409 44.9563 177.039 44.6984 176.557C44.4446 176.074 44.3156 175.517 44.3156 174.886C44.3156 174.254 44.4446 173.701 44.6984 173.223V173.219ZM48.8212 173.78C48.5425 173.51 48.2014 173.373 47.802 173.373C47.4026 173.373 47.0614 173.506 46.7827 173.776C46.504 174.042 46.3667 174.412 46.3667 174.881C46.3667 175.351 46.504 175.725 46.7827 176C47.0614 176.274 47.4026 176.411 47.802 176.411C48.2014 176.411 48.5425 176.274 48.8212 176.004C49.1 175.734 49.2373 175.359 49.2373 174.89C49.2373 174.42 49.0958 174.05 48.8212 173.776V173.78Z" fill="var(--fill-0, #FFFFFF)"/>
<path id="Vector_12" d="M56.081 172.047C56.4346 171.851 56.8257 171.756 57.2584 171.756V173.751H56.705C56.2016 173.751 55.8272 173.851 55.5734 174.054C55.3238 174.258 55.1948 174.611 55.1948 175.118V177.974H53.1813V171.826H55.1948V172.853C55.432 172.516 55.7232 172.25 56.0768 172.055L56.081 172.047Z" fill="var(--fill-0, #FFFFFF)"/>
<path id="Vector_13" d="M60.7114 169.815V177.97H58.6978V169.815H60.7114Z" fill="var(--fill-0, #FFFFFF)"/>
<path id="Vector_14" d="M69.3565 171.818L65.2337 180.888H63.0661L64.5722 177.758L61.8971 171.818H64.1478L65.6663 175.663L67.1724 171.818H69.3524H69.3565Z" fill="var(--fill-0, #FFFFFF)"/>
<path id="Vector_15" d="M84.9078 170.234L82.7527 177.97H80.3148L78.996 172.878L77.6314 177.97H75.1935L73.0967 170.234H75.2517L76.4416 175.862L77.9143 170.234H80.1276L81.5421 175.862L82.7444 170.234H84.9119H84.9078Z" fill="var(--fill-0, #FFFFFF)"/>
<path id="Vector_16" d="M86.3722 173.219C86.626 172.741 86.9755 172.375 87.4164 172.117C87.8574 171.86 88.3484 171.731 88.8892 171.731C89.351 171.731 89.7587 171.818 90.1082 171.997C90.4576 172.171 90.7281 172.404 90.9153 172.691V171.822H92.9289V177.97H90.9153V177.101C90.7197 177.388 90.4452 177.621 90.0957 177.795C89.7462 177.97 89.3385 178.061 88.8767 178.061C88.3442 178.061 87.8574 177.932 87.4164 177.671C86.9755 177.409 86.6302 177.039 86.3722 176.557C86.1184 176.074 85.9895 175.517 85.9895 174.886C85.9895 174.254 86.1184 173.701 86.3722 173.223V173.219ZM90.4951 173.78C90.2163 173.51 89.8752 173.373 89.4758 173.373C89.0764 173.373 88.7353 173.506 88.4565 173.776C88.1778 174.042 88.0405 174.412 88.0405 174.881C88.0405 175.351 88.1778 175.725 88.4565 176C88.7353 176.274 89.0764 176.411 89.4758 176.411C89.8752 176.411 90.2163 176.274 90.4951 176.004C90.7738 175.734 90.9153 175.359 90.9153 174.89C90.9153 174.42 90.7738 174.05 90.4951 173.776V173.78Z" fill="var(--fill-0, #FFFFFF)"/>
<path id="Vector_17" d="M97.759 172.047C98.1126 171.851 98.5037 171.756 98.9363 171.756V173.751H98.383C97.8796 173.751 97.5052 173.851 97.2514 174.054C97.0018 174.258 96.8728 174.611 96.8728 175.118V177.974H94.8592V171.826H96.8728V172.853C97.11 172.516 97.4012 172.25 97.7548 172.055L97.759 172.047Z" fill="var(--fill-0, #FFFFFF)"/>
<path id="Vector_18" d="M106.221 172.454C106.679 172.92 106.912 173.56 106.912 174.379V177.97H104.911V174.632C104.911 174.221 104.798 173.9 104.569 173.672C104.341 173.443 104.037 173.331 103.65 173.331C103.263 173.331 102.959 173.443 102.731 173.672C102.502 173.9 102.389 174.221 102.389 174.632V177.97H100.376V171.822H102.389V172.637C102.593 172.367 102.868 172.151 103.213 171.993C103.558 171.835 103.945 171.756 104.378 171.756C105.148 171.756 105.763 171.988 106.221 172.454Z" fill="var(--fill-0, #FFFFFF)"/>
<path id="Vector_19" d="M108.929 170.891C108.705 170.696 108.592 170.455 108.592 170.168C108.592 169.881 108.705 169.632 108.929 169.436C109.154 169.241 109.441 169.145 109.795 169.145C110.148 169.145 110.423 169.241 110.648 169.436C110.872 169.632 110.985 169.877 110.985 170.168C110.985 170.459 110.872 170.696 110.648 170.891C110.423 171.086 110.14 171.182 109.795 171.182C109.449 171.182 109.154 171.086 108.929 170.891ZM110.797 171.818V177.966H108.784V171.818H110.797Z" fill="var(--fill-0, #FFFFFF)"/>
<path id="Vector_20" d="M118.577 172.454C119.035 172.92 119.268 173.56 119.268 174.379V177.97H117.267V174.632C117.267 174.221 117.154 173.9 116.926 173.672C116.697 173.443 116.393 173.331 116.006 173.331C115.619 173.331 115.315 173.443 115.087 173.672C114.858 173.9 114.746 174.221 114.746 174.632V177.97H112.732V171.822H114.746V172.637C114.949 172.367 115.224 172.151 115.569 171.993C115.915 171.835 116.301 171.756 116.734 171.756C117.504 171.756 118.12 171.988 118.577 172.454Z" fill="var(--fill-0, #FFFFFF)"/>
<path id="Vector_21" d="M124.855 171.997C125.205 172.171 125.475 172.404 125.662 172.691V171.822H127.676V177.962C127.676 178.527 127.555 179.038 127.318 179.499C127.077 179.957 126.715 180.322 126.224 180.597C125.733 180.867 125.121 181.004 124.393 181.004C123.42 181.004 122.629 180.788 122.026 180.36C121.423 179.932 121.078 179.35 120.99 178.614H122.979C123.041 178.851 123.191 179.034 123.428 179.171C123.665 179.308 123.952 179.375 124.298 179.375C124.714 179.375 125.046 179.263 125.292 179.038C125.537 178.814 125.662 178.456 125.662 177.966V177.097C125.467 177.384 125.196 177.617 124.851 177.795C124.506 177.974 124.102 178.065 123.636 178.065C123.095 178.065 122.604 177.937 122.163 177.675C121.722 177.413 121.377 177.043 121.119 176.561C120.861 176.079 120.736 175.522 120.736 174.89C120.736 174.258 120.865 173.705 121.119 173.227C121.373 172.749 121.722 172.383 122.163 172.126C122.604 171.868 123.095 171.739 123.636 171.739C124.098 171.739 124.506 171.826 124.855 172.005V171.997ZM125.242 173.78C124.963 173.51 124.622 173.373 124.223 173.373C123.823 173.373 123.482 173.506 123.203 173.776C122.925 174.042 122.783 174.412 122.783 174.881C122.783 175.351 122.921 175.725 123.203 176C123.482 176.274 123.823 176.411 124.223 176.411C124.622 176.411 124.963 176.274 125.242 176.004C125.521 175.734 125.662 175.359 125.662 174.89C125.662 174.42 125.521 174.05 125.242 173.776V173.78Z" fill="var(--fill-0, #FFFFFF)"/>
<path id="Vector_22" d="M133.941 177.77C133.463 177.587 133.08 177.317 132.793 176.956C132.506 176.594 132.356 176.162 132.339 175.655H134.482C134.515 175.941 134.619 176.158 134.798 176.311C134.977 176.461 135.214 176.536 135.505 176.536C135.797 176.536 136.038 176.473 136.213 176.345C136.387 176.216 136.471 176.037 136.471 175.808C136.471 175.617 136.4 175.459 136.263 175.335C136.125 175.21 135.955 175.106 135.755 175.027C135.555 174.948 135.268 174.852 134.902 174.753C134.37 174.599 133.933 174.445 133.596 174.291C133.259 174.137 132.968 173.909 132.722 173.61C132.477 173.31 132.356 172.915 132.356 172.429C132.356 171.71 132.635 171.145 133.192 170.737C133.75 170.33 134.478 170.126 135.372 170.126C136.267 170.126 137.016 170.33 137.573 170.737C138.131 171.145 138.43 171.714 138.468 172.437H136.288C136.271 172.188 136.175 171.993 135.992 171.847C135.809 171.702 135.58 171.631 135.297 171.631C135.052 171.631 134.856 171.693 134.707 171.814C134.557 171.934 134.482 172.109 134.482 172.338C134.482 172.587 134.607 172.782 134.861 172.924C135.11 173.065 135.505 173.215 136.038 173.377C136.571 173.547 137.007 173.705 137.34 173.863C137.673 174.017 137.964 174.241 138.206 174.536C138.447 174.832 138.572 175.21 138.572 175.671C138.572 176.133 138.451 176.511 138.214 176.872C137.973 177.234 137.627 177.517 137.17 177.733C136.712 177.949 136.175 178.053 135.555 178.053C134.936 178.053 134.407 177.962 133.929 177.779L133.941 177.77Z" fill="var(--fill-0, #FFFFFF)"/>
<path id="Vector_23" d="M147.005 171.818L142.882 180.888H140.714L142.22 177.758L139.545 171.818H141.796L143.314 175.663L144.82 171.818H147H147.005Z" fill="var(--fill-0, #FFFFFF)"/>
<path id="Vector_24" d="M149.347 177.783C148.898 177.6 148.544 177.346 148.286 177.026C148.028 176.706 147.882 176.349 147.849 175.954H149.838C149.863 176.166 149.967 176.34 150.154 176.473C150.341 176.606 150.574 176.673 150.849 176.673C151.098 176.673 151.294 176.627 151.431 176.536C151.568 176.444 151.639 176.324 151.639 176.178C151.639 176.004 151.539 175.871 151.344 175.788C151.148 175.704 150.828 175.609 150.391 175.505C149.921 175.401 149.526 175.293 149.214 175.181C148.902 175.069 148.627 174.886 148.402 174.64C148.174 174.395 148.061 174.063 148.061 173.643C148.061 173.289 148.165 172.969 148.373 172.678C148.581 172.387 148.889 172.159 149.293 171.988C149.696 171.818 150.179 171.735 150.736 171.735C151.56 171.735 152.209 171.926 152.688 172.309C153.162 172.691 153.436 173.198 153.507 173.83H151.647C151.614 173.618 151.514 173.447 151.348 173.323C151.177 173.198 150.957 173.136 150.682 173.136C150.445 173.136 150.266 173.177 150.141 173.26C150.017 173.343 149.954 173.46 149.954 173.605C149.954 173.78 150.054 173.913 150.254 174C150.453 174.088 150.765 174.175 151.19 174.266C151.677 174.383 152.072 174.499 152.38 174.611C152.688 174.723 152.954 174.911 153.187 175.164C153.42 175.418 153.536 175.758 153.545 176.182C153.545 176.544 153.436 176.864 153.22 177.147C153.004 177.429 152.696 177.65 152.288 177.812C151.885 177.974 151.415 178.053 150.882 178.053C150.308 178.053 149.796 177.962 149.351 177.779L149.347 177.783Z" fill="var(--fill-0, #FFFFFF)"/>
<path id="Vector_25" d="M158.911 176.37V177.966H157.888C157.156 177.966 156.59 177.799 156.178 177.463C155.77 177.13 155.566 176.582 155.566 175.825V173.381H154.768V171.818H155.566V170.322H157.58V171.818H158.899V173.381H157.58V175.85C157.58 176.033 157.626 176.166 157.722 176.245C157.817 176.328 157.971 176.365 158.192 176.365H158.911V176.37Z" fill="var(--fill-0, #FFFFFF)"/>
<path id="Vector_26" d="M166.662 175.347H162.102C162.136 175.729 162.265 176.02 162.498 176.224C162.731 176.428 163.013 176.527 163.35 176.527C163.854 176.527 164.203 176.328 164.399 175.933H166.541C166.433 176.336 166.234 176.702 165.946 177.022C165.659 177.346 165.302 177.6 164.869 177.783C164.436 177.966 163.954 178.057 163.421 178.057C162.776 178.057 162.202 177.928 161.703 177.671C161.2 177.413 160.808 177.047 160.526 176.569C160.243 176.091 160.101 175.534 160.101 174.894C160.101 174.254 160.239 173.697 160.517 173.219C160.796 172.741 161.187 172.375 161.69 172.117C162.194 171.86 162.768 171.731 163.421 171.731C164.074 171.731 164.623 171.855 165.119 172.105C165.614 172.354 166.001 172.712 166.279 173.173C166.558 173.634 166.695 174.175 166.695 174.794C166.695 174.969 166.683 175.156 166.662 175.347ZM164.636 174.3C164.636 173.975 164.519 173.718 164.282 173.526C164.045 173.335 163.754 173.24 163.4 173.24C163.047 173.24 162.776 173.331 162.547 173.514C162.315 173.697 162.173 173.959 162.119 174.295H164.64L164.636 174.3Z" fill="var(--fill-0, #FFFFFF)"/>
<path id="Vector_27" d="M178.565 172.45C179.047 172.911 179.289 173.555 179.289 174.378V177.97H177.287V174.632C177.287 174.237 177.175 173.93 176.95 173.713C176.726 173.497 176.418 173.389 176.027 173.389C175.636 173.389 175.328 173.497 175.103 173.713C174.879 173.93 174.766 174.237 174.766 174.632V177.97H172.765V174.632C172.765 174.237 172.653 173.93 172.428 173.713C172.204 173.497 171.896 173.389 171.505 173.389C171.114 173.389 170.806 173.497 170.581 173.713C170.356 173.93 170.244 174.237 170.244 174.632V177.97H168.23V171.822H170.244V172.595C170.448 172.338 170.714 172.134 171.047 171.984C171.376 171.835 171.75 171.76 172.166 171.76C172.661 171.76 173.102 171.86 173.493 172.059C173.88 172.259 174.188 172.541 174.404 172.907C174.633 172.57 174.941 172.292 175.336 172.08C175.727 171.868 176.156 171.76 176.622 171.76C177.437 171.76 178.086 171.993 178.573 172.454L178.565 172.45Z" fill="var(--fill-0, #FFFFFF)"/>
</g>
<defs>
<clipPath id="clip0_0_4">
<rect width="180" height="181" fill="white"/>
</clipPath>
</defs>
</svg>
